<svg xmlns="http://www.w3.org/2000/svg" viewBox="0 0 900 1200" role="img" aria-labelledby="title desc">
  <title id="title">Venmo 1 Placeholder QR</title>
  <desc id="desc">Placeholder payment image to replace with a real Venmo QR code.</desc>
  <rect width="900" height="1200" rx="56" fill="#ffffff" />
  <rect x="34" y="34" width="832" height="1132" rx="40" fill="#f7fbff" stroke="#1d6ef2" stroke-width="10" />
  <text x="450" y="130" fill="#0c3f92" font-family="Arial, sans-serif" font-size="56" font-weight="700" text-anchor="middle">Venmo 1</text>
  <g fill="#111111">
    <rect x="120" y="220" width="110" height="110" />
    <rect x="260" y="220" width="55" height="55" />
    <rect x="345" y="220" width="55" height="55" />
    <rect x="455" y="220" width="110" height="110" />
    <rect x="595" y="220" width="55" height="55" />
    <rect x="680" y="220" width="100" height="100" />
    <rect x="120" y="360" width="55" height="55" />
    <rect x="205" y="360" width="110" height="110" />
    <rect x="345" y="305" width="55" height="55" />
    <rect x="455" y="360" width="55" height="55" />
    <rect x="540" y="305" width="110" height="110" />
    <rect x="680" y="360" width="55" height="55" />
    <rect x="120" y="500" width="110" height="110" />
    <rect x="260" y="500" width="55" height="55" />
    <rect x="345" y="445" width="110" height="110" />
    <rect x="510" y="500" width="55" height="55" />
    <rect x="595" y="500" width="110" height="110" />
    <rect x="735" y="445" width="45" height="45" />
    <rect x="120" y="640" width="55" height="55" />
    <rect x="205" y="640" width="55" height="55" />
    <rect x="290" y="640" width="110" height="110" />
    <rect x="455" y="640" width="110" height="110" />
    <rect x="595" y="640" width="55" height="55" />
    <rect x="680" y="695" width="100" height="100" />
    <rect x="120" y="805" width="110" height="110" />
    <rect x="260" y="860" width="55" height="55" />
    <rect x="345" y="805" width="55" height="55" />
    <rect x="430" y="860" width="55" height="55" />
    <rect x="515" y="805" width="110" height="110" />
    <rect x="655" y="860" width="125" height="55" />
  </g>
  <text x="450" y="1060" fill="#39516e" font-family="Arial, sans-serif" font-size="34" text-anchor="middle">Replace this file with your real Venmo QR code</text>
  <text x="450" y="1110" fill="#5b6f88" font-family="Arial, sans-serif" font-size="28" text-anchor="middle">payments/venmo-1.svg</text>
</svg>
