<svg xmlns="http://www.w3.org/2000/svg" viewBox="0 0 900 1200" role="img" aria-labelledby="title desc">
  <title id="title">Venmo 2 Placeholder QR</title>
  <desc id="desc">Placeholder payment image to replace with a real Venmo QR code.</desc>
  <rect width="900" height="1200" rx="56" fill="#ffffff" />
  <rect x="34" y="34" width="832" height="1132" rx="40" fill="#f7fbff" stroke="#1d6ef2" stroke-width="10" />
  <text x="450" y="130" fill="#0c3f92" font-family="Arial, sans-serif" font-size="56" font-weight="700" text-anchor="middle">Venmo 2</text>
  <g fill="#111111">
    <rect x="130" y="225" width="100" height="100" />
    <rect x="260" y="225" width="55" height="55" />
    <rect x="350" y="280" width="110" height="110" />
    <rect x="500" y="225" width="55" height="55" />
    <rect x="585" y="225" width="110" height="110" />
    <rect x="725" y="280" width="55" height="55" />
    <rect x="130" y="365" width="55" height="55" />
    <rect x="215" y="365" width="110" height="110" />
    <rect x="360" y="365" width="55" height="55" />
    <rect x="445" y="365" width="110" height="110" />
    <rect x="585" y="420" width="55" height="55" />
    <rect x="670" y="365" width="110" height="110" />
    <rect x="130" y="505" width="110" height="110" />
    <rect x="270" y="560" width="55" height="55" />
    <rect x="355" y="505" width="110" height="110" />
    <rect x="495" y="560" width="55" height="55" />
    <rect x="580" y="505" width="55" height="55" />
    <rect x="665" y="505" width="110" height="110" />
    <rect x="130" y="700" width="55" height="55" />
    <rect x="215" y="645" width="110" height="110" />
    <rect x="355" y="700" width="55" height="55" />
    <rect x="440" y="645" width="110" height="110" />
    <rect x="580" y="700" width="110" height="110" />
    <rect x="720" y="645" width="55" height="55" />
    <rect x="130" y="835" width="100" height="100" />
    <rect x="260" y="835" width="55" height="55" />
    <rect x="345" y="890" width="55" height="55" />
    <rect x="430" y="835" width="110" height="110" />
    <rect x="570" y="835" width="55" height="55" />
    <rect x="655" y="890" width="125" height="55" />
  </g>
  <text x="450" y="1060" fill="#39516e" font-family="Arial, sans-serif" font-size="34" text-anchor="middle">Replace this file with your real Venmo QR code</text>
  <text x="450" y="1110" fill="#5b6f88" font-family="Arial, sans-serif" font-size="28" text-anchor="middle">payments/venmo-2.svg</text>
</svg>
